/* XPM */
static char *_ba8d8abd3a24ccec8e4e13204790346[] = {
/* columns rows colors chars-per-pixel */
"64 64 208 2 ",
"   c None",
".  c #3E0027",
"X  c #3F0028",
"o  c #44002B",
"O  c #4B002E",
"+  c #480B2D",
"@  c #4E0030",
"#  c #4B0C35",
"$  c #530033",
"%  c #590036",
"&  c #5D0139",
"*  c #570936",
"=  c #5C1B33",
"-  c #52163E",
";  c #591735",
":  c #500B36",
">  c #63013C",
",  c #6A033F",
"<  c #68093C",
"1  c #671B38",
"2  c #761E3F",
"3  c #70003F",
"4  c #5C2236",
"5  c #6A2335",
"6  c #642C3B",
"7  c #682839",
"8  c #76243C",
"9  c #6C3537",
"0  c #783639",
"q  c #7B4839",
"w  c #7D5536",
"e  c #5B1642",
"r  c #591842",
"t  c #6D0441",
"y  c #740443",
"u  c #7B0546",
"i  c #750A42",
"p  c #7B0945",
"a  c #7E0648",
"s  c #7A0B49",
"d  c #7D1D47",
"f  c #73184D",
"g  c #682546",
"h  c #7C2343",
"j  c #753843",
"k  c #743E5F",
"l  c #6E2D56",
"z  c #763D60",
"x  c #793D62",
"c  c #794244",
"v  c #7A4E6A",
"b  c #87493A",
"n  c #8B553B",
"m  c #8D5B3D",
"M  c #935E39",
"N  c #896937",
"B  c #8E7338",
"V  c #91763B",
"C  c #957A3A",
"Z  c #9B7E3C",
"A  c #996A3C",
"S  c #A5793C",
"D  c #82074A",
"F  c #89074D",
"G  c #85084A",
"H  c #89084C",
"J  c #87184C",
"K  c #86294A",
"L  c #883B49",
"P  c #933D4E",
"I  c #8B2950",
"U  c #923B52",
"Y  c #932B4D",
"T  c #864D46",
"R  c #87534C",
"E  c #9B5547",
"W  c #9A4E59",
"Q  c #8B5554",
"!  c #9B505B",
"~  c #944948",
"^  c #A55951",
"/  c #997B44",
"(  c #9C715B",
")  c #94674F",
"_  c #AB6557",
"`  c #A5745B",
"'  c #A16942",
"]  c #8F5979",
"[  c #8C627C",
"{  c #91637F",
"}  c #AD6861",
"|  c #B27C66",
" . c #9D823A",
".. c #AE833E",
"X. c #A5893C",
"o. c #B2843F",
"O. c #B1883C",
"+. c #AD923B",
"@. c #BC9D3D",
"#. c #B5973D",
"$. c #BEA33F",
"%. c #C4A53E",
"&. c #CAAC3F",
"*. c #C6AA3F",
"=. c #CEB23F",
"-. c #D1B43F",
";. c #9D8146",
":. c #A3864A",
">. c #A58548",
",. c #B48845",
"<. c #BC9D43",
"1. c #AA8C52",
"2. c #B6985B",
"3. c #B38B59",
"4. c #BC9567",
"5. c #C7A746",
"6. c #CFB345",
"7. c #D2B642",
"8. c #D5B946",
"9. c #D6BC49",
"0. c #D9BD4D",
"q. c #D6B948",
"w. c #CEA955",
"e. c #DABD53",
"r. c #DBBE5A",
"t. c #D6B559",
"y. c #C39568",
"u. c #C78E70",
"i. c #C18868",
"p. c #C7A668",
"a. c #D7B767",
"s. c #CDA575",
"d. c #D6AA79",
"f. c #D2B372",
"g. c #DDBB7D",
"h. c #DCB379",
"j. c #E2BC77",
"k. c #D9C14A",
"l. c #DCC155",
"z. c #DDC35A",
"x. c #E5C95B",
"c. c #E1C557",
"v. c #DEC261",
"b. c #DFC56A",
"n. c #DFC17A",
"m. c #E1C462",
"M. c #E9CC66",
"N. c #E4C66A",
"B. c #E5C96D",
"V. c #EBCE6C",
"C. c #E7CA62",
"Z. c #E9CC74",
"A. c #ECCD7A",
"S. c #E3C676",
"D. c #EED173",
"F. c #EFD07E",
"G. c #F1D47C",
"H. c #F0D475",
"J. c #EED26D",
"K. c #9A5F81",
"L. c #9B6A86",
"P. c #9D6A88",
"I. c #9A6584",
"U. c #987C8F",
"Y. c #9F929D",
"T. c #A0959F",
"R. c #A49CA4",
"E. c #BAB7BB",
"W. c #B0AAB0",
"Q. c #DEB285",
"!. c #E5BE81",
"~. c #C2BABF",
"^. c #E5C481",
"/. c #EBCB84",
"(. c #E9C484",
"). c #EDD283",
"_. c #EDD68A",
"`. c #F3D584",
"'. c #F6D78B",
"]. c #F6D88C",
"[. c #F8D98C",
"{. c #F6D886",
"}. c #F5DB95",
"|. c #F6DD9B",
" X c #F8DE9A",
".X c #EFD790",
"XX c #F7DFA3",
"oX c #F8E1A5",
"OX c #F8E2A9",
"+X c #BDBEC0",
"@X c #C6BEC4",
"#X c #BFC1C2",
"$X c #C3C4C5",
"%X c #C9C1C6",
"&X c #CBCCCC",
"*X c #CBC3C8",
"=X c #D4CFD2",
"-X c #CFD0D1",
";X c #D3D4D4",
":X c #DDDCDC",
">X c #D7D8D7",
",X c #D1CBCE",
"<X c #E0DFDF",
"1X c #E0E1DF",
"2X c #E0DFE0",
"3X c #E3E4E3",
"4X c #E9EAE9",
"5X c #E8E8E7",
/* pixels */
"                                                    V.M.x.x.c.c.k.-.-.-.%.@.                                                    ",
"                                            G.G.H.D.J.M.x.c.c.k.k.8.-.&.%.@.+.X. .C                                             ",
"                                        '.`.G.G.H.J.J.x.C.x.c.l.k.8.8.&.$.#.+.X. .C V B                                         ",
"                                  '.'.'.`.`.G.G.H.H.J.M.m.e.t.6.6.5.5.5.$.@.#.X. . .C / ;.;.1.                                  ",
"                                ].].'.'.].{.G.G.j.y.` E P h K 2 d 8 h 0 b m ' Z X.;. ./ ;.:.1.2.                                ",
"                            '.'.].].'.'.{.S.i.^ K < < 3 3 3 < 3 < t , < , > & 1 0 R / :.1.1.2.4.p.f.                            ",
"                          ].'.'.].].'.h.} K 3 3 3 3 p p p 3 p i y t t t t t t > & & 1 c / 2.2.p.p.f.Q.                          ",
"                      '.'.'.'.].[.j.} J y y p 3 D p p p p p p p u i i i t t t t , , > & ; T 2.p.f.g.S._.].                      ",
"                    '.].'.'.[.`.u.Y 3 3 p D D p D p D D D a a a u u u i y y t t t t e & & * g ` f.n.(.`.].[.                    ",
"                  '.'.].'.[.(.^ 2 3 p D p D G G G D D D D D a D u a a y u y y y t t t t > & % & R f./.).{.{.{.                  ",
"                ].].'.'.].Q.U y p D D D G G G G G H G G D D a a a a u u y y y y t t t t > & & % % j f.`.`.`.`.G.                ",
"              ].'.'.'.[.d.I y a 3 D D D G G H H H H G D D a D D a u u y u y y t t t t t , , e & % % h y.G.G.G.H.D.              ",
"              ].].].[.d.K 3 p D H H H H H H H H G G G G D u D u u a u y y y y y t t t t t t t % & % @ g p.G.G.D.V.              ",
"            ].].'.].j.I y u D D H H F H H H H G G G D a D D u u a y u y y y y y t t t t t t & t & & % @ 7 p.D.V.M.C.            ",
"          ].].'.].(.~ p 3 D D D H F H H H H H H H E _ Y D D u u y y y y K ^ E i t t t t t e & & & & * % $ 0 a.M.m.x.c.          ",
"          '.'.]..X^ 3 3 D D D H F H H H H H H G ^ q.c.p.J u u u y a y J y.z.8.M t t t t e t t & t & % % $ @ R m.c.r.l.          ",
"        '.'.].[.u.i i p G G G H H H H H H H H G o.k.z.b.P u u J J y t L v.l.k...t t t t t & % t & & & % $ $ # ` l.l.9.q.        ",
"      '.'.'.[.!.K y p p G G H H H H H H H H G p o.9.l.N.U y I Q.Q.I t L v.l.k...& t & t t e t t t & & % % $ @ 7 5.0.8.8.7.      ",
"      '.'.'.'.} t i s a D G H H H H H H G J G D O.9.l.b.P y W }.|.! , L v.l.9...t t t & & & t % t % & & % $ $ O E k.8.8.-.      ",
"      '.`.'.h.h y i p G G G H H H H H H G G G p ,.9.l.v.P y ! |.|.! , L v.l.k...> & & t & t % t % % t & $ e # O ; <.8.=.-.      ",
"    F.F.A.F._ , y s s G G F F F H H D D G G D p ,.9.l.v.P t ! XX}.W , L v.l.k...< t & > t & & % e & % % e $ $ $ o m 8.7.7.=.    ",
"    Z.Z.Z.j.K , y s a G G a F a G G G G H D D p O.9.l.z.L t W OX|.W & L z.l.k.,.& > > & & & & t & % % e % % $ $ O = 5.8.7.7.    ",
"  N.N.N.Z.3.< i y a s s F a F F D G G G G D D 3 O.9.l.v.i.| s.OX|.s.| 4.v.l.9.,.> & > & & & % % & t % % % % $ @ O O / 8.7.7.7.  ",
"  c.m.m.m.~ , , s s G F G a a F G G G G G D G p O.k.l.v.D.{.}.OX|.}.}.).v.l.k...& t & & & e % t % % $ % % % $ @ @ O 0 q.q.7.7.  ",
"  r.r.l.w.h , t i u a D a a a a D G D D D D u u o.9.l.x.B.).}.OXXX'..X_.b.l.k...& & & & & & % % % % e $ $ % % @ @ O ; 5.q.7.q.  ",
"  e.0.e.,.< < y i u a a a a F a D D D p u D u 3 b 7.e.m.B.`.}.oXoX'..X_.b.l.6.q % & & & % % % % % % $ % e $ $ $ @ O + ,.0.t.0.  ",
"q.q.q.q.' < < 3 y y u a u a a a u D u D D u u y , 0 b T T R Q E Q Q R R T q 9 * & & & % % % % % % % $ % $ $ $ $ O O X / r.0.0.t.",
"7.7.7.7.b < , 3 y i u u u u u u u u u u u u u u t , > & % % % $ $ $ $ $ @ $ $ & & % % % % % $ % % $ % % $ $ $ @ @ O o c e.e.r.r.",
"7.7.7.=.0 , , , y y y y u u s s u u u u u u u y y t 3 , , > < > > > & * & & % % $ % % % $ e $ % $ $ $ $ $ $ $ $ @ O o 9 t.z.z.r.",
"-.-.-.&.8 > , , y y y y y y y y u u u u y 3 y 3 3 , , , > > & > % % % $ % % % $ @ @ $ $ $ $ % $ % $ $ $ $ $ $ $ @ + o 4 a.z.m.v.",
"-.-.-.%.1 > > , t y y y y y y y y y f ] ] K.I.I.I.P.P.P.{ P.P.P.L.L.L.L.L.L.I.{ I.K.[ ] v e @ $ $ $ $ $ $ $ $ @ @ O o = a.m.m.N.",
"-.-.-.%.5 > > , t t y y t y y y y i U.+X%X&X-X;X>X<X2X3X1X1X4X4X4X4X4X3X5X3X1X>X;X-X&X$X+XU.e $ $ $ $ $ $ $ @ @ O O o ; a.N.N.N.",
"-.-.-.%.5 % & < t t t t t t t t t l W.E.$X$X,X=X>X:X:X:X1X5X3X5X5X5X5X3X5X3X:X>X;X-X&X$X~.W.g @ $ $ $ $ $ @ $ @ @ O o 4 a.B.S.B.",
"-.-.-.*.1 % > < & t t t t t t t t g T.+X$X&X;X;X>X:X3X3X1X1X3X1X5X4X4X3X5X5X1X:X>X,X&X$X$XR.r @ $ $ @ # $ $ @ @ O o o 4 f.D.Z.Z.",
"-.-.-.&.5 & & > t t t & t t t t t > z Y.W.W.E.E.~.@X%X%X*X,X1X5X5X5X=X%X*X*X@X~.E.E.W.W.T.c # $ @ $ $ @ @ @ @ @ O o X 6 S.Z.Z.A.",
"-.-.-.=.0 % % > % t t t & t t t t , & * e e e e e r e r ; v :X5X5X1Xv - r - - - : ; = = # O @ @ @ @ $ @ @ @ @ O O o X j A.F.A.A.",
"-.-.-.-.b $ % > t & t & & t t & > > t & & > > % & % % % % k :X1X1X1Xk O O @ @ @ @ @ @ @ @ $ $ @ $ @ @ @ @ $ @ O o o X R )./.G.F.",
"-.-.-.-.A $ % & % e t t t t & t > , > t > , > > , & > & & k :X1X5X1Xk $ $ $ $ $ @ $ $ @ $ $ @ @ @ @ @ $ @ @ O O o o X ` `.).`.`.",
"  -.-.-.X.* % % & & & t t & > t t & > > > > > > > > > % & k :X3X1X1Xk $ $ $ $ $ @ @ $ $ @ @ $ @ @ @ @ @ @ O O O o o o p.'.`.`.  ",
"  -.-.-.5.1 $ % & t & & > > > > & t > > > > , > > > > % % k :X3X5X1Xk @ $ $ $ @ $ $ @ @ @ $ @ @ $ @ @ @ @ @ O O o X 4 ^.'.`.'.  ",
"  -.-.-.-.b $ % & > > > > > > > t & t & t t % t > > & & % k :X1X1X<Xk % $ $ $ $ $ $ O $ $ @ @ @ @ @ @ @ @ O O O + X R '.'.'.'.  ",
"  -.-.-.-.S $ $ % & > > > > > > & t & t % t & e > > > & % x :X3X5X<Xk $ $ $ $ $ $ @ @ $ @ @ @ @ @ @ O @ @ O O o X o 4.].'.'.].  ",
"    -.-.-.%.5 $ % & & > > > , > t & t & t % t & , > > & % x :X3X1X:Xk % $ $ $ $ $ $ @ @ @ $ @ @ @ O @ @ O O O X X 4 /.].].].    ",
"    -.-.-.-.M $ * & & > > > > > & t & t & t & t > > & > % x :X3X1X:Xk $ % $ $ $ $ $ @ $ $ @ @ @ @ @ @ @ O o o o X ( }.'.'.].    ",
"      -.-.-.@.1 $ % & & t & & e t & e t t t % t > > > & % x :X3X1X1Xx $ % $ $ $ $ @ $ @ $ @ $ @ @ @ @ O O o o X ; g.[.].'.      ",
"      -.-.-.-.M $ % % > % t & t & t & % t % & e > > > > & x :X3X1X<Xx $ % $ $ $ $ $ $ @ @ $ O $ @ @ O O O o X X ( ].'.'.].      ",
"      -.-.-.-.%.5 % % % & t t % t & % t t & t & > > > > % x :X3X5X:Xk $ $ % $ $ $ $ @ $ $ $ O O @ $ O O o o X 6 ^.].'.'.'.      ",
"        -.-.-.-./ : % $ % % % t & t t t % t & t > > > > > x >X3X1X<XU $ % $ % $ % $ $ $ $ @ $ $ O O O o O X + 4.].].].'.        ",
"          -.-.-.-.n $ % % & % > > > > > > > > > > > > > > x :X3X3X:Xx % % $ % $ $ $ $ $ $ @ $ O @ O O o o X ) .X].'.].          ",
"          -.-.-.-.%.0 % $ & & > > & > , > > > > > > > & & x :X3X3X:Xx $ % % $ % $ $ $ $ @ $ @ $ O O o o X c /.'.`.].].          ",
"            -.-.-.-.@.5 $ % % % > > > > > > > , > > > > & l -X5X3X;Xl $ % % $ $ % $ $ $ $ @ @ O O o o o 6 g.[.].].].            ",
"              -.-.-.-.#.5 $ $ % & & & > > > > > > > > > & & [ @X@X[ % % % % % $ % $ $ $ $ @ O O o o . 6 d.[.'.'.].              ",
"              -.-.-.-.-.#.5 $ % % & & & > > > > > t > > & & % r r $ % & % % % % $ $ $ $ $ O O o o o 6 h.].].].'.].              ",
"                -.-.-.-.-.@.0 $ $ $ % & % > % > > & > > > > & & & & & % % % $ % $ $ $ @ O O O o o c g.].'.].'.'.                ",
"                  -.-.-.-.-.&.M * $ $ % % & & > & & > > & > & & & & & % % $ % $ $ $ O O o o o + ) (.].'.].].'.                  ",
"                    -.-.=.=.=.*.S 5 $ $ $ % & & & & & & & & & & & % % % % $ $ $ O $ O O o + g y.].].].].'.'.                    ",
"                      =.&.&.*.%.$.X.q = $ $ % $ % % % & * & % & % $ % $ $ $ @ @ O O O O = ( (.].'.].].].].                      ",
"                          *.$.@.+.X. .N 9 = $ @ $ $ % $ % $ % $ $ $ $ @ @ @ @ @ o # 6 ` j.}.].'.'.'.'.                          ",
"                            #.#.X.X.C V B N w 9 ; : O @ @ $ @ @ @ @ @ # O O # 7 Q y.(.[.}.'.'.].'.].                            ",
"                                X. .C B B B B B N n q 9 7 = ; ; ; 1 g j Q ` s.^.'.[.].].].].'.'.                                ",
"                                  Z V V B B B B B B B B V / / / :.2.p.f.n.).'.'.'.'.'.'.].'.'.                                  ",
"                                        B B B B B B B B V V ;.;.1.2.p.f.n._.).'.].'.].'.                                        ",
"                                            B B B B B B B V ;.;.1.2.p.f.S./.`.'.'.'.                                            ",
"                                                    B B B V ;.;.<.2.p.f.Q./.                                                    "
};
