/* XPM */
static char *b3d9f8c986dc4f4a84aec454fb7f0a34[] = {
/* columns rows colors chars-per-pixel */
"16 16 191 2 ",
"   c None",
".  c #46002C",
"X  c #4A002E",
"o  c #4D002F",
"O  c #4D0030",
"+  c #4E0030",
"@  c #4F0031",
"#  c #500031",
"$  c #510031",
"%  c #500131",
"&  c #520031",
"*  c #500032",
"=  c #530032",
"-  c #530033",
";  c #520233",
":  c #540033",
">  c #510034",
",  c #530034",
"<  c #520035",
"1  c #540034",
"2  c #560034",
"3  c #520434",
"4  c #580036",
"5  c #5D0635",
"6  c #500C31",
"7  c #5C0039",
"8  c #5D0039",
"9  c #5C003A",
"0  c #5E003A",
"q  c #5F003A",
"w  c #5E033B",
"e  c #5E0A3E",
"r  c #5F1336",
"t  c #5B1D37",
"y  c #5F1D36",
"u  c #5E1F37",
"i  c #5F1D3A",
"p  c #600039",
"a  c #61003A",
"s  c #60003B",
"d  c #61003C",
"f  c #63003D",
"g  c #64013D",
"h  c #65023D",
"j  c #65023E",
"k  c #64053E",
"l  c #68013F",
"z  c #6A013F",
"x  c #68023F",
"c  c #600B38",
"v  c #610C3B",
"b  c #651637",
"n  c #641E36",
"m  c #6B113B",
"M  c #63193A",
"N  c #641938",
"B  c #681938",
"V  c #6F1D3A",
"C  c #70133E",
"Z  c #751D3D",
"A  c #6C2E37",
"S  c #7A273E",
"D  c #762E39",
"F  c #713A36",
"G  c #7F423F",
"H  c #620A40",
"J  c #6F0841",
"K  c #700143",
"L  c #700243",
"P  c #740344",
"I  c #770346",
"U  c #790347",
"Y  c #7A0546",
"T  c #7E0447",
"R  c #7C0843",
"E  c #7D0E47",
"W  c #7E0448",
"Q  c #7E0648",
"!  c #6C1840",
"~  c #7D1E42",
"^  c #67214C",
"/  c #6E3541",
"(  c #763446",
")  c #703C5D",
"_  c #7E3C65",
"`  c #8D593A",
"'  c #925A3A",
"]  c #896C38",
"[  c #946F39",
"{  c #906E3F",
"}  c #8E7438",
"|  c #A1713B",
" . c #A3723B",
".. c #800349",
"X. c #800548",
"o. c #87054B",
"O. c #85064A",
"+. c #85074B",
"@. c #89074D",
"#. c #85084B",
"$. c #820F49",
"%. c #8A0C4C",
"&. c #881747",
"*. c #84114A",
"=. c #8C1849",
"-. c #842246",
";. c #88224D",
":. c #8B214E",
">. c #853143",
",. c #8B3247",
"<. c #92374E",
"1. c #99354D",
"2. c #822359",
"3. c #915743",
"4. c #9A5645",
"5. c #9F5259",
"6. c #A3535C",
"7. c #9A6B59",
"8. c #9F6C5C",
"9. c #AA6659",
"0. c #A27B53",
"q. c #B07F58",
"w. c #865172",
"e. c #8D5879",
"r. c #97527A",
"t. c #93577B",
"y. c #97577D",
"u. c #90587A",
"i. c #B26B61",
"p. c #AF7A63",
"a. c #AD7B66",
"s. c #B07D62",
"d. c #9B803D",
"f. c #AE8F3D",
"g. c #BB953D",
"h. c #C29F3E",
"j. c #C39F3E",
"k. c #C1A63E",
"l. c #C9AA3E",
"z. c #CFB23F",
"x. c #D2B63F",
"c. c #BA8C4B",
"v. c #BF8D4F",
"b. c #BE9946",
"n. c #B3905C",
"m. c #B38867",
"M. c #B48867",
"N. c #C1994F",
"B. c #C4994F",
"V. c #C4A044",
"C. c #CEAF4E",
"Z. c #D0AF4C",
"A. c #D3B844",
"S. c #CDAC5C",
"D. c #D3AF54",
"F. c #C5886F",
"G. c #CC9F76",
"H. c #CD9F76",
"J. c #D5B46C",
"K. c #D7B976",
"L. c #D6B27A",
"P. c #D8B37B",
"I. c #DCB17B",
"U. c #DEB17D",
"Y. c #E4C85F",
"T. c #E4C36A",
"R. c #E7CB6E",
"E. c #E2C17E",
"W. c #E7C77F",
"Q. c #F0D17F",
"!. c #966884",
"~. c #996886",
"^. c #A48196",
"/. c #A78198",
"(. c #A58298",
"). c #A78399",
"_. c #A58498",
"`. c #A88299",
"'. c #A5919E",
"]. c #A7909F",
"[. c #B29BAA",
"{. c #B29DAA",
"}. c #F3D780",
"|. c #F4D48A",
" X c #F4D58A",
".X c #F7D98C",
"XX c #F8D98C",
"oX c #F8DA8C",
"OX c #F9DA8D",
"+X c #D0C7CC",
"@X c #D2C9CE",
/* pixels */
"          }.T.D.V.f.d.          ",
"      .XU.i.<.-.~ S G 0.K.      ",
"    |.F.:.X...W U K x ! s.Q.    ",
"  .XF.*.o.%.1.$.E ,.J g v q.Y.  ",
"  I.;.O.@.=.v.6.5.c.C f 9 N b.  ",
"R.9.Y #.+.&.B.H.G.N.m 0 7 < ` A.",
"Z.>.I Q T R 4.p.a.3.5 4 4 > A C.",
"j.Z L P 2.r.y.t.u.e.w.^ - * y S.",
"h.V l z _ ].[.+X@X{.'.) # + u J.",
"l.D d j h k w )._.; 3 % @ X / W.",
"x.' 7 g g g p /.^.& $ # + . 7.oX",
"  g.B s g g a `.(.: = # X t L.  ",
"  x. .c s g a ~.!.2 1 o 6 m.XX  ",
"    z.| b 8 q H e , O i M. X    ",
"      k.[ F n r M ( 8.P.XX      ",
"          } ] { n.E.OX          "
};
