/* XPM */
static char *db49b185f92642c5b7cd17155ffe6ff8[] = {
/* columns rows colors chars-per-pixel */
"32 32 183 2 ",
"   c None",
".  c #44002B",
"X  c #4B002E",
"o  c #47082C",
"O  c #4E0031",
"+  c #530033",
"@  c #590037",
"#  c #500831",
"$  c #5D0139",
"%  c #570839",
"&  c #5D1436",
"*  c #5B1B35",
"=  c #581536",
"-  c #63013C",
";  c #69023F",
":  c #6C0D3D",
">  c #670C3A",
",  c #621935",
"<  c #64183B",
"1  c #6D1D3A",
"2  c #631537",
"3  c #74173F",
"4  c #622335",
"5  c #63243A",
"6  c #6C2736",
"7  c #77293D",
"8  c #6B343B",
"9  c #6E3835",
"0  c #743236",
"q  c #76353A",
"w  c #7E4F37",
"e  c #7D5436",
"r  c #5F0F41",
"t  c #5C1742",
"y  c #6C0341",
"u  c #600F41",
"i  c #740444",
"p  c #7A0546",
"a  c #730B42",
"s  c #7B0A45",
"d  c #7D0648",
"f  c #760B49",
"g  c #661547",
"h  c #7A1E41",
"j  c #77154A",
"k  c #7B2F40",
"l  c #6F3342",
"z  c #763145",
"x  c #743E44",
"c  c #7B344C",
"v  c #7A3746",
"b  c #6D2B53",
"n  c #712B56",
"m  c #752B58",
"M  c #6B3B5B",
"N  c #753B60",
"B  c #82363E",
"V  c #82433D",
"C  c #8B563B",
"Z  c #8D5F3E",
"A  c #8C6E3A",
"S  c #9F6E3A",
"D  c #8D7338",
"F  c #91763A",
"G  c #957A3C",
"H  c #A97C3B",
"J  c #820749",
"K  c #89074D",
"L  c #84084A",
"P  c #89084C",
"I  c #821347",
"U  c #861349",
"Y  c #841E4A",
"T  c #8B2B4C",
"R  c #822846",
"E  c #8A324C",
"W  c #823047",
"Q  c #903C4B",
"!  c #8E3250",
"~  c #953E54",
"^  c #993E5B",
"/  c #8C5849",
"(  c #9C5946",
")  c #A9594A",
"_  c #9D6F40",
"`  c #9A7C45",
"'  c #977644",
"]  c #976658",
"[  c #AF714F",
"{  c #A86257",
"}  c #B67455",
"|  c #88627B",
" . c #836178",
".. c #9C823B",
"X. c #AA8E3B",
"o. c #A8853B",
"O. c #B58E3C",
"+. c #AA903C",
"@. c #B6993E",
"#. c #BDA23D",
"$. c #C3A33E",
"%. c #C9AA3E",
"&. c #CEB03F",
"*. c #D2B53F",
"=. c #9E8145",
"-. c #AC8241",
";. c #A68A4E",
":. c #B18243",
">. c #BE9845",
",. c #BE9745",
"<. c #AA8954",
"1. c #BF8E5C",
"2. c #B49659",
"3. c #AE8464",
"4. c #B88A63",
"5. c #BD816A",
"6. c #B28566",
"7. c #BD936B",
"8. c #B99761",
"9. c #C19845",
"0. c #C39C5A",
"q. c #C7A645",
"w. c #CFB340",
"e. c #D2B543",
"r. c #D5B945",
"t. c #D6B94C",
"y. c #D9BD48",
"u. c #D1AE51",
"i. c #D4B552",
"p. c #DABD54",
"a. c #D7BA59",
"s. c #D9BC5B",
"d. c #D3B35B",
"f. c #C7996E",
"g. c #C99071",
"h. c #C79179",
"j. c #C89A78",
"k. c #C8A96A",
"l. c #D1A76F",
"z. c #D4B466",
"x. c #D1AB76",
"c. c #D8A97A",
"v. c #DFBF75",
"b. c #D4B574",
"n. c #DEC25C",
"m. c #DDC053",
"M. c #E3C858",
"N. c #E7C868",
"B. c #E7CA68",
"V. c #E4C57F",
"C. c #ECCE7A",
"Z. c #E5C775",
"A. c #EED272",
"S. c #F3D67D",
"D. c #955F80",
"F. c #8E6981",
"G. c #916B83",
"H. c #A18597",
"J. c #A98C9E",
"K. c #AC93A3",
"L. c #BA9CAE",
"P. c #B396A7",
"I. c #ABA4AB",
"U. c #B7A3B0",
"Y. c #BCA1B1",
"T. c #ECCB85",
"R. c #E7C982",
"E. c #F2D484",
"W. c #F6D78A",
"Q. c #F7D88B",
"!. c #F8D98C",
"~. c #EACB93",
"^. c #EED597",
"/. c #C9CECD",
"(. c #D8D5D7",
"). c #DAD6D8",
"_. c #D7D9D8",
"`. c #DDE0DE",
"'. c #E1DFE0",
"]. c #DFE2E0",
"[. c #E6E9E6",
"{. c #EAECEA",
"}. c #E3E6E3",
/* pixels */
"                        A.A.M.M.y.*.$.X.                        ",
"                  W.E.S.A.B.p.u.q.9.@.+.G ' `                   ",
"              W.W.W.V.f.{ Q R Y 3 B B V _ ' <.2.k.              ",
"            W.!.R.g.! s : J p ; p ; ; - - 6 / 8.b.R.            ",
"          W.!.c.~ f d d L d J d p p i y y - % z 7.E.E.          ",
"        W.W.g.Y p L L P K K J d p p i i y y - @ < 4.E.S.        ",
"      Q.Q.g.I d L K K K L L d d p i p i y y y - @ 2 4.A.B.      ",
"    Q.!.c.Y p L P P P K ) } L d p s [ ( y y y - $ @ < 0.M.m.    ",
"    !.T.~ p J P P P K U 9.z.T ( ^ R a.>.> y y - - $ + l i.t.    ",
"  E.!.} a s L P P P L U 9.s.T h.h.W a.>.y y $ - $ $ @ O _ r.e.  ",
"  C.R.E p d L K K K L I 9.a.! h.h.W a.>.> - r $ $ $ @ O 6 q.e.  ",
"  B.4.a p d J J J J J I 9.n.x.~.~.x.n.>.> $ $ $ $ $ @ O o -.r.  ",
"p.m.( ; p d J J J J J d H s.Z.^.^.R.s.-.$ $ $ @ @ @ @ @ X C t.t.",
"r.e.B ; p p p d p p p p 3 B k c c z 8 < $ @ @ @ @ @ O O X 9 i.a.",
"e.%.7 ; i i i i p J p p i y ; - $ $ $ $ % @ @ O O @ @ O . 4 d.n.",
"*.$.1 - y i i i f | J.P.P.L.L.Y.Y.Y.U.P.K.H.F.% @ O O O O * z.N.",
"*.$.1 - y y y y j I./.(.].}.[.[.{.{.{.}.(./.I.< + O + O X * z.A.",
"*.$.6 - - - y y > N | | G.G.H.).'.H.G.F.|  .M # + O O O . 4 v.C.",
"*.%.q @ - - y - - - - @ $ + b (.).b X X O X O O O O O X . x T.C.",
"*.*.C @ - - - - - - - - - - n (.).b O + + + O O O O O X . ] W.W.",
"  *.o.> $ - - - - - - - - $ n (.(.b + + O + + O X O X . o 7.!.  ",
"  *.%.6 @ - - - - - - - - $ n (.(.b + + + O O O O O X . 8 R.!.  ",
"  *.*.S + $ - - - - - - - - m (.(.n + + + + O O O X . o 3.!.Q.  ",
"    *.%.q @ $ - - - - ; - - m ).(.n + + + + O O O . . x T.Q.    ",
"    *.*.O., @ - - - - - - - m ).).n @ + + + + O O . * x.W.!.    ",
"      *.*.H & @ $ - - - - - g U.U.g @ + + + O O . = 7.!.W.      ",
"        *.*.H , + $ - - - - $ u r @ @ @ + + O . * 7.W.!.        ",
"          *.*.O.0 @ + $ $ $ $ $ @ @ + + O X o x x.W.W.          ",
"            %.$.+.e * + + @ @ + + + O O # l 6.T.!.!.            ",
"              @.o.G A e 0 4 * & 2 5 v ] j.T.!.Q.W.              ",
"                  F D D D D D ' <.k.R.W.!.!.W.                  ",
"                        D D D ` 2.k.R.W.                        "
};
