<?xml version="1.0"?>
<svg xmlns="http://www.w3.org/2000/svg" xmlns:xlink="http://www.w3.org/1999/xlink" version="1.1" id="Layer_1" x="0px" y="0px" viewBox="0 0 512 512" style="enable-background:new 0 0 512 512;" xml:space="preserve" width="512px" height="512px" class=""><g><g><g><g><g><g><g><g><g><g><g><g><g><g><g><g><g><g><path style="fill:#8560B3" d="M379.474,71.664l-23.24-13.53C209.048-16.044,33.313,90.88,33.313,257.217  c0,123.044,99.747,222.791,222.796,222.791c123.044,0,222.793-99.747,222.793-222.791  C478.902,179.792,439.407,111.594,379.474,71.664z" data-original="#8560B3" class="" data-old_color="#7851A9"/><path style="fill:#533875" d="M283.064,475.12c-120.334,0-217.887-97.549-217.887-217.883  c0-134.174,118.829-232.574,245.14-216.326C174.885,6.491,33.313,107.922,33.313,257.217c0,123.044,99.747,222.791,222.796,222.791  c18.477,0,36.422-2.265,53.589-6.504C300.969,474.568,292.082,475.12,283.064,475.12z" data-original="#533875" class="" data-old_color="#533875"/><path style="fill:#9272BB" d="M417.045,411.274c38.314-40.013,61.857-94.284,61.857-154.057  c0-77.425-39.495-145.623-99.428-185.553l-23.24-13.53c-20.768-10.466-42.105-17.326-63.436-20.923  C208.096,172.028,267.263,353.427,417.045,411.274z" data-original="#9272BB" class="" data-old_color="#9272BB"/><path style="fill:#CBCBCB" d="M256.001,0C114.615,0,0.002,114.613,0.002,255.999S114.615,512,256.001,512  c140.725,0,255.997-113.992,255.997-256.001C511.998,114.613,397.384,0,256.001,0z M256.001,473.884  c-120.336,0-217.884-97.549-217.884-217.885c0-120.334,97.548-217.883,217.884-217.883c119.704,0,217.887,96.949,217.887,217.883  C473.889,376.335,376.335,473.884,256.001,473.884z" data-original="#CBCBCB" class="" data-old_color="#CBCBCB"/><path style="fill:#F1F1F1" d="M451.045,421.81C574.08,277.218,501.689,50.953,315.085,6.868  c-9.063,10.616-17.275,21.982-24.524,33.996c44.159,7.037,68.914,23.676,86.091,33.675  c114.465,76.258,130.281,237.208,34.549,334.372C423.989,414.252,437.304,418.587,451.045,421.81z" data-original="#F1F1F1" class="" data-old_color="#F1F1F1"/><path style="fill:#FFD700" d="M348.542,236.328h-56.184l23.806-29.426c25.446-31.453,22.428-77.536-7.549-105.398  c0-0.002,0-0.002,0-0.002c-10.291-9.777-24.911-17.309-40.989-19.764v-0.002c-69.554-10.69-116.107,70.396-71.79,125.166  l23.806,29.426h-56.184c-10.538,0-19.077,8.539-19.077,19.076c0,10.536,8.539,19.079,19.077,19.079h73.465v143.758  c0,10.534,8.541,19.078,19.077,19.078c10.535,0,19.074-8.543,19.074-19.078c0-6.349,0-137.438,0-143.758h73.466  c10.535,0,19.076-8.543,19.076-19.079C367.618,244.866,359.077,236.328,348.542,236.328z M256.001,220.606l-30.505-37.702  c-11.204-13.845-11.886-34.597,0.014-49.347c15.501-19.12,44.902-19.892,61.394,0.512c11.156,14.235,10.995,34.754-0.399,48.834  L256.001,220.606z" data-original="#FFD700" class="" data-old_color="#E6C200"/><path style="fill:#FFE34D" d="M348.542,236.328h-56.184l23.806-29.426c25.393-31.387,22.491-77.479-7.549-105.398  c0-0.002,0-0.002,0-0.002c-9.539-9.058-23.139-16.426-38.153-19.277c-4.515,11.918-8.168,24.263-10.876,36.955  c31.452,2.898,46.374,39.684,26.917,63.726l-28.548,35.286c3.532,19.73,9.341,38.665,17.121,56.545v-0.252h73.466  c10.535,0,19.076-8.543,19.076-19.079C367.618,244.866,359.077,236.328,348.542,236.328z" data-original="#FFE34D" class="active-path" data-old_color="#FFE34D"/></g></g></g></g></g></g></g></g></g></g></g></g></g></g></g></g></g></g> </svg>
